<svg xmlns="http://www.w3.org/2000/svg" viewBox="0 0 1440 320"><path fill="#3282b8" fill-opacity="1" d="M0,64L34.3,80C68.6,96,137,128,206,149.3C274.3,171,343,181,411,186.7C480,192,549,192,617,186.7C685.7,181,754,171,823,165.3C891.4,160,960,160,1029,165.3C1097.1,171,1166,181,1234,170.7C1302.9,160,1371,128,1406,112L1440,96L1440,320L1405.7,320C1371.4,320,1303,320,1234,320C1165.7,320,1097,320,1029,320C960,320,891,320,823,320C754.3,320,686,320,617,320C548.6,320,480,320,411,320C342.9,320,274,320,206,320C137.1,320,69,320,34,320L0,320Z"></path></svg>